<svg width="544" height="126" viewBox="0 0 544 126" fill="none" xmlns="http://www.w3.org/2000/svg">
<g clip-path="url(#clip0_254_501)">
<g opacity="0.9">
<path d="M94.6522 116.676C93.3788 119.382 90.1299 120.553 87.4007 119.289C86.5487 118.895 85.8511 118.315 85.3268 117.617L85.1442 117.36L71.0766 97.4545L63.5208 86.7669L58.1699 79.1923L57.9452 78.8787L56.2412 76.4677L33.8359 44.7699L86.1554 1.27487L86.2397 1.20465C87.8126 -0.0593352 90.041 -0.401078 91.9978 0.502434C93.964 1.41063 95.1297 3.33001 95.1578 5.3477V73.0924V77.4462V84.0282V114.055C95.1578 114.074 95.1578 114.102 95.1578 114.125V114.682V114.696C95.1203 115.366 94.9565 116.035 94.6522 116.676Z" fill="#003355"/>
</g>
<g opacity="0.7">
<path d="M57.948 78.8779C57.4237 78.1897 56.7262 77.6139 55.8835 77.2254C55.0502 76.8415 54.1655 76.6776 53.3041 76.7198H53.276H53.2666C53.1355 76.7245 53.0138 76.7385 52.8827 76.7526H52.864L43.5948 77.5577L30.4728 78.6953L6.17628 80.802H6.16224L5.73623 80.8394H5.73155C4.87953 80.8769 3.99942 80.7177 3.17081 80.3338C0.422824 79.0652 -0.766255 75.8303 0.516452 73.1057C0.8067 72.4878 1.19526 71.9541 1.65872 71.5094L1.66808 71.5L2.28135 70.985L25.3701 51.7912L30.4635 47.5592L33.8294 44.7598L56.2346 76.4576L57.9387 78.8685L57.948 78.8779Z" fill="#003355"/>
</g>
<path d="M60.2285 105.808C59.9102 106.487 59.4654 107.067 58.9364 107.54L58.7164 107.723L58.7024 107.737L39.6303 123.588L39.2745 123.883C37.7109 125.086 35.534 125.4 33.6147 124.515C31.7327 123.644 30.5858 121.851 30.4688 119.932V119.894V119.646V119.295V94.7223V94.4367V94.3993V94.3852C30.4968 93.683 30.6607 92.9714 30.979 92.2973C31.7842 90.5886 33.3759 89.4885 35.1314 89.231H35.1408L35.8056 89.1701L47.6074 88.1449L47.8742 88.1262C48.7544 88.07 49.6579 88.2292 50.5146 88.6224C51.3713 89.0157 52.0735 89.6055 52.5978 90.3077L52.7523 90.5231L59.5497 100.139L59.5591 100.157L59.9336 100.691L59.9617 100.729C60.8652 102.222 61.029 104.118 60.2285 105.817V105.808Z" fill="#F07F2D"/>
<path d="M206.387 41.7575C203.156 38.4197 199.247 35.8496 194.65 34.0426C190.053 32.2355 184.843 31.332 179.024 31.332H146.82V104.311H179.024C184.847 104.311 190.077 103.407 194.706 101.6C199.336 99.793 203.245 97.2557 206.443 93.9881C209.636 90.7204 212.075 86.863 213.755 82.4156C215.44 77.9683 216.283 73.1043 216.283 67.819C216.283 62.5337 215.44 57.7961 213.755 53.3815C212.07 48.9669 209.617 45.0907 206.387 41.7575ZM202.81 78.2492C201.686 81.3763 200.057 84.0728 197.918 86.3293C195.779 88.5904 193.077 90.3413 189.814 91.5959C186.551 92.8458 182.778 93.4731 178.499 93.4731H158.187V42.1789H178.499C182.778 42.1789 186.533 42.8062 189.758 44.0561C192.984 45.3061 195.685 47.0803 197.862 49.3742C200.034 51.6681 201.686 54.3786 202.81 57.5058C203.934 60.633 204.495 64.0738 204.495 67.8283C204.495 71.5828 203.934 75.1267 202.81 78.2538V78.2492Z" fill="#003355"/>
<path d="M288.006 73.9743C291.69 71.891 294.635 69.1103 296.844 65.632C299.054 62.1584 300.159 58.3711 300.159 54.2702C300.159 49.9633 299.105 46.0683 297.003 42.5947C294.897 39.1211 292.055 36.3731 288.478 34.3601C284.902 32.3471 280.969 31.3359 276.691 31.3359H240.695V104.315H252.062V77.1014H272.178L289.738 104.315L303.735 104.417L284.775 75.4864C285.88 75.065 286.957 74.5641 288.001 73.9743H288.006ZM252.066 42.1734H274.275C276.939 42.1734 279.345 42.693 281.484 43.737C283.624 44.781 285.309 46.2041 286.536 48.0111C287.762 49.8182 288.376 51.8686 288.376 54.1625C288.376 56.4564 287.832 58.4226 286.746 60.2624C285.656 62.1069 284.186 63.5628 282.327 64.6395C280.469 65.7162 278.381 66.2546 276.063 66.2546H252.066V42.1687V42.1734Z" fill="#003355"/>
<path d="M327.844 42.0712H342.679V93.5761H327.844V104.315H368.886V93.5761H354.046V42.0712H368.886V31.332H327.844V42.0712Z" fill="#003355"/>
<path d="M432.977 75.4349C431.994 77.8692 431.048 80.2848 430.135 82.6817C429.223 85.0786 428.347 87.3912 427.504 89.6149C427.275 90.2234 427.055 90.8086 426.84 91.3844C426.779 91.23 426.723 91.0755 426.662 90.9163C426.03 89.2825 425.346 87.5784 424.611 85.8089C423.876 84.0393 423.118 82.265 422.35 80.4908C421.578 78.7165 420.876 76.9984 420.244 75.3319L401.827 31.3359H388.883L420.141 104.315H432.242L463.392 31.3359H450.027L432.977 75.4349Z" fill="#003355"/>
<path d="M531.172 104.315H543.484L512.226 31.3359H499.914L468.445 104.315H480.125L487.775 86.5907H523.546L531.167 104.315H531.172ZM492.461 75.7485L500.021 58.2353C500.513 56.9854 501.075 55.5763 501.707 54.0127C502.339 52.4491 502.985 50.7966 503.654 49.0598C504.319 47.323 504.951 45.6189 505.55 43.9523C505.625 43.7464 505.695 43.5497 505.766 43.3531C505.784 43.3999 505.798 43.4421 505.812 43.4842C506.444 45.1882 507.109 46.9765 507.811 48.8538C508.514 50.731 509.16 52.4866 509.759 54.1204C510.353 55.7542 510.826 56.9854 511.182 57.8234L518.892 75.7579H492.466L492.461 75.7485Z" fill="#003355"/>
</g>
<defs>
<clipPath id="clip0_254_501">
<rect width="543.489" height="125.027" fill="white"/>
</clipPath>
</defs>
</svg>
